<?xml version="1.0" encoding="utf-8"?>
<!-- Generator: Adobe Illustrator 19.2.1, SVG Export Plug-In . SVG Version: 6.00 Build 0)  -->
<svg version="1.1" id="Layer_1" xmlns="http://www.w3.org/2000/svg" xmlns:xlink="http://www.w3.org/1999/xlink" x="0px" y="0px"
	 viewBox="0 0 24.3 24.6" style="enable-background:new 0 0 24.3 24.6;" xml:space="preserve">
<path d="M11.9,23.2C6,23.2,1.2,18.4,1.2,12.5S6,1.8,11.9,1.8s10.7,4.8,10.7,10.7S17.9,23.2,11.9,23.2z M11.9,2.8
	c-5.4,0-9.7,4.4-9.7,9.7s4.4,9.7,9.7,9.7s9.7-4.4,9.7-9.7S17.3,2.8,11.9,2.8z"/>
<g>
	<path d="M9.3,7.1l1.6,2.3c0.4,0.6,0.7,1.2,1.1,1.8h0.1c0.4-0.6,0.7-1.2,1.1-1.8l1.5-2.3h2.1l-3.7,5.2l3.8,5.6h-2.3l-1.6-2.4
		c-0.4-0.6-0.8-1.2-1.2-1.9h0c-0.4,0.6-0.7,1.2-1.2,1.9l-1.6,2.4H7l3.9-5.5L7.1,7.1H9.3z"/>
</g>
</svg>
